<svg xmlns="http://www.w3.org/2000/svg" fill="none" viewBox="0 0 512 512"><g clip-path="url(#a)"><path fill="#4A5676" d="M160.037 49.673h168.827l-78.607 122.376-167.95-2.673 77.73-119.703ZM547.059 215.156H328.864l-82.285 181.521-75.721-176.161-204.671-4.695-23.397 57.334-152.616 115.715 116.602 10.522v-37.987l186.367 13.846 102.145 66.979 51.291-12.926 72.355 12.926 116.248-70.048 173.297-11.003"/><path fill="#E5E0D9" d="M435.182 372.182V328.34c0-23.421-27.273-29.233-26.806-45.526v-18.767c.552-15.967-21.43-15.062-21.43-29.459v-13.775h-16.084v13.775c0 14.397-19.096 12.474-19.096 29.459v18.767c0 15.755-32.832 21.865-32.832 45.526v113.89l-72.355-12.926-51.291 12.926V324.648c0-20.351-25.83-25.81-25.83-42.498v-14.751c0-12.941-18.021-23.76-18.021-34.819v-12.517l19.436.453 75.706 176.161 82.299-181.521h72.468v-53.587L328.878 49.715 250.257 172.05l-167.935-2.673v49.103l51.023 1.174v12.248c0 11.979-16.084 22.826-16.084 35.498v14.751c0 16.419-24.118 21.383-24.118 42.498v50.603l-186.367-13.846v37.987l-116.602-10.522v73.457h818.305V361.179"/><path fill="#E5E0D9" d="M0 462.327h512V512H0z"/></g><defs><clipPath id="a"><path fill="#fff" d="M0 0h512v512H0z"/></clipPath></defs></svg>
