<svg xmlns="http://www.w3.org/2000/svg" fill="none" viewBox="0 0 512 260"><path fill="#414C6C" d="M231.417.904H337.05l-49.183 76.57L182.783 75.8 231.417.904ZM473.571 104.445H337.05l-51.484 113.574-47.378-110.221-128.06-2.938-14.639 35.874L0 213.135l72.956 6.583V195.95l116.607 8.663 63.91 41.908 32.093-8.088 45.27 8.088 72.735-43.828L512 195.809"/><path fill="#F6F1EA" d="M403.571 202.693v-27.431c0-14.654-17.064-18.291-16.772-28.485v-11.742c.345-9.99-13.409-9.424-13.409-18.432v-8.619h-10.063v8.619c0 9.008-11.948 7.805-11.948 18.432v11.742c0 9.858-20.543 13.681-20.543 28.485v71.259l-45.27-8.087-32.093 8.087v-73.569c0-12.733-16.161-16.149-16.161-26.59v-9.23c0-8.096-11.276-14.866-11.276-21.786v-7.831l12.161.283 47.369 110.221 51.492-113.574H382.4V70.916L337.058.931l-49.191 76.542-105.075-1.672v30.723l31.924.735v7.663c0 7.495-10.063 14.282-10.063 22.21v9.23c0 10.273-15.09 13.379-15.09 26.59v31.661L72.956 195.95v23.768L0 213.135v45.961h512v-63.287"/></svg>
